<svg width="40" height="40" viewBox="0 0 40 40" fill="none" xmlns="http://www.w3.org/2000/svg">
<path d="M6.51022 7.53042C6.70787 7.51011 6.90709 7.50152 7.10631 7.49995C15.7008 7.49995 24.2946 7.49995 32.8891 7.49995C34.3071 7.48745 35.7141 8.06714 36.7165 9.06792C37.7313 10.0625 38.3321 11.4656 38.3321 12.8882C38.3352 17.4187 38.3329 21.95 38.3337 26.4812C38.3321 26.9257 38.3469 27.3734 38.2821 27.8148C38.1102 29.1 37.4493 30.3085 36.4712 31.1578C35.4922 32.0226 34.1915 32.5093 32.8852 32.5C24.5258 32.5 16.1672 32.5 7.80865 32.5C7.2899 32.4968 6.76725 32.5203 6.25319 32.4343C4.88053 32.2257 3.60865 31.4554 2.77272 30.3492C2.05006 29.4078 1.65318 28.2226 1.66647 27.0351C1.66959 22.2679 1.661 17.5007 1.67115 12.7343C1.70709 11.4171 2.26022 10.1281 3.1735 9.1812C4.04693 8.26323 5.24772 7.66089 6.51022 7.53042ZM4.40709 11.7484C4.061 12.5085 4.19068 13.3593 4.16803 14.1671C14.7227 14.1664 25.2774 14.1664 35.8313 14.1671C35.8321 13.714 35.8391 13.2601 35.8282 12.8062C35.8047 11.9921 35.4219 11.1945 34.7922 10.6757C34.2665 10.2312 33.5782 9.99605 32.8915 10.0007C24.2962 9.99917 15.7001 9.99917 7.10397 10.0007C5.96178 9.97808 4.84615 10.6914 4.40709 11.7484ZM4.16647 17.5015C4.16725 20.5476 4.16647 23.5945 4.16647 26.6414C4.15944 27.1062 4.16256 27.582 4.32115 28.025C4.686 29.1703 5.83053 29.9968 7.03053 29.9968C14.5587 30.0039 22.086 29.9976 29.6141 30C30.786 29.9929 31.9594 30.014 33.1313 29.989C34.5751 29.9257 35.8157 28.6351 35.8282 27.1914C35.8399 23.9609 35.8298 20.7312 35.8337 17.5007C25.2782 17.5 14.7219 17.4992 4.16647 17.5015Z" fill="white"/>
<path d="M26.1169 24.1742C27.8279 24.157 29.5404 24.1703 31.2521 24.1671C31.9443 24.1406 32.5646 24.7789 32.5146 25.471C32.5013 26.1265 31.9021 26.6906 31.2466 26.6656C29.5818 26.6671 27.9169 26.6671 26.2513 26.6656C25.6263 26.6874 25.0443 26.1734 24.9904 25.5499C24.8997 24.882 25.4435 24.2164 26.1169 24.1742Z" fill="white"/>
</svg>
