<svg width="40" height="40" viewBox="0 0 40 40" fill="none" xmlns="http://www.w3.org/2000/svg">
<path d="M14.2403 3.90835C17.2317 2.87006 20.5223 2.72006 23.5981 3.46772C26.1239 4.07866 28.4981 5.29897 30.4707 6.98881C32.3567 8.59506 33.8786 10.6263 34.8872 12.8888C36.4653 16.3958 36.7559 20.4583 35.7106 24.1583C34.9856 26.7568 33.6082 29.1669 31.7512 31.1224C29.7075 33.281 27.0793 34.8849 24.2176 35.6943C22.4637 36.1927 20.627 36.3998 18.8051 36.3044C16.477 36.1802 14.1942 35.5107 12.1223 34.4498C9.96294 35.0482 7.80668 35.656 5.64731 36.2529C5.10512 36.4044 4.50747 36.3068 4.03481 36.0052C3.26918 35.5388 2.81997 34.5646 3.07778 33.6873C3.67622 31.531 4.28012 29.3763 4.88247 27.2216C3.62778 24.7771 2.92309 22.0294 3.00668 19.274C3.07387 15.7232 4.33481 12.2123 6.52856 9.42163C8.49965 6.89506 11.2075 4.94663 14.2403 3.90835ZM14.2278 6.57866C11.7278 7.60678 9.5434 9.37944 8.00747 11.6029C6.4645 13.8224 5.58793 16.4958 5.50825 19.1974C5.41762 21.6974 6.0145 24.2185 7.21684 26.4123C7.31918 26.5998 7.41684 26.7958 7.43872 27.0123C7.47934 27.3154 7.3684 27.6083 7.29106 27.8966C6.75434 29.813 6.21918 31.7302 5.68403 33.6474C7.71918 33.081 9.75512 32.5138 11.7895 31.9443C12.152 31.8271 12.5497 31.8943 12.8715 32.0896C15.0317 33.2787 17.509 33.8865 19.9747 33.824C22.2747 33.7771 24.5629 33.1654 26.57 32.0388C28.8207 30.7888 30.7145 28.9076 31.984 26.6685C33.7637 23.5662 34.2778 19.7779 33.4293 16.3076C32.8317 13.8162 31.5332 11.5005 29.7278 9.68413C27.8426 7.77788 25.4043 6.42085 22.7848 5.8435C19.9481 5.20678 16.9129 5.456 14.2278 6.57866Z" fill="white"/>
<path d="M11.9493 15.5349C12.0712 15.506 12.1978 15.5006 12.3236 15.4974C16.854 15.4998 21.3845 15.4982 25.9157 15.499C26.3111 15.5021 26.7423 15.4482 27.0923 15.674C27.6322 15.9787 27.8587 16.7107 27.5884 17.2677C27.3868 17.7279 26.8892 18.0177 26.3923 17.9982C21.7009 17.999 17.0095 17.999 12.3181 17.9982C11.8001 18.0216 11.2868 17.7052 11.0962 17.2193C10.7954 16.5482 11.2329 15.692 11.9493 15.5349Z" fill="white"/>
<path d="M14.1131 21.3404C17.7217 21.3193 21.3311 21.3404 24.9405 21.3302C25.278 21.313 25.6319 21.3834 25.8967 21.6052C26.3311 21.942 26.4889 22.5795 26.2608 23.0795C26.071 23.5349 25.5913 23.838 25.0999 23.8302C21.5061 23.8349 17.9116 23.831 14.3178 23.8318C13.885 23.8474 13.4491 23.6404 13.2108 23.2755C12.935 22.874 12.9288 22.3107 13.1983 21.9052C13.3967 21.592 13.7421 21.3748 14.1131 21.3404Z" fill="white"/>
</svg>
