<svg width="40" height="40" viewBox="0 0 40 40" fill="none" xmlns="http://www.w3.org/2000/svg">
<path d="M19.6995 3.37105C20.0886 3.27027 20.512 3.38199 20.8191 3.63746C24.4472 6.49293 28.073 9.35152 31.7003 12.2086C32.2597 12.6617 32.8581 13.0734 33.3448 13.6078C34.3941 14.7382 34.9948 16.2703 34.9987 17.8125C35.0027 22.9679 34.9987 28.1234 35.0003 33.2781C34.9995 33.6414 35.0206 34.0156 34.9027 34.3648C34.6972 35.0273 34.1425 35.5656 33.4753 35.7539C33.1339 35.8554 32.7745 35.8312 32.4237 35.8335C29.9745 35.8328 27.5245 35.8328 25.0745 35.8335C24.7417 35.8304 24.4034 35.8539 24.0784 35.7679C23.3878 35.5945 22.8089 35.0445 22.5964 34.3648C22.4792 34.0164 22.5003 33.6445 22.5003 33.2828C22.4995 30.6757 22.5019 28.0687 22.4995 25.4617C22.5355 25.1968 22.2987 24.9648 22.0355 25.0007C20.6769 24.9992 19.3175 24.9992 17.9589 25.0007C17.7612 24.9828 17.5448 25.1039 17.5144 25.3117C17.4862 25.5437 17.5027 25.7789 17.5003 26.0132C17.4987 28.5914 17.5027 31.1695 17.4987 33.7476C17.5073 34.5671 16.9753 35.3507 16.2222 35.6656C15.9355 35.7929 15.6206 35.8375 15.3097 35.8335C12.5495 35.8304 9.78859 35.8382 7.02765 35.8296C5.94093 35.8226 4.98234 34.839 5.00187 33.7523C4.99953 28.439 4.99953 23.1257 5.00109 17.8132C4.99953 15.9539 5.88625 14.121 7.3425 12.9671C11.2003 9.92574 15.0597 6.88824 18.9175 3.84683C19.1573 3.65933 19.3933 3.44136 19.6995 3.37105ZM8.90578 14.9171C8.03468 15.6062 7.50265 16.6992 7.50109 17.8101C7.49953 22.9851 7.50031 28.1593 7.50109 33.3336C10.0003 33.3336 12.5003 33.3328 14.9995 33.3336C15.0011 30.8929 14.9995 28.4523 15.0003 26.0117C14.9995 25.5179 14.9761 25.0101 15.1402 24.5359C15.4972 23.3937 16.6112 22.5312 17.8128 22.5046C19.1933 22.4929 20.5745 22.5039 21.9558 22.4992C23.3206 22.4273 24.6339 23.432 24.9237 24.7664C25.0214 25.1742 24.9987 25.5968 25.0003 26.0132C25.0011 28.4531 24.9995 30.8937 25.0011 33.3336C27.5003 33.3328 30.0003 33.3328 32.4995 33.3336C32.5003 28.1586 32.5019 22.9836 32.4987 17.8078C32.4964 16.6796 31.9464 15.5718 31.0534 14.8828C27.3698 11.9796 23.687 9.07496 20.0003 6.17574C16.3027 9.09058 12.6034 12.0031 8.90578 14.9171Z" fill="white"/>
</svg>
