<svg width="40" height="40" viewBox="0 0 40 40" fill="none" xmlns="http://www.w3.org/2000/svg">
<path d="M4.24746 7.54144C4.54512 7.47581 4.85371 7.50472 5.15606 7.50003C15.0522 7.50003 24.9482 7.50003 34.8436 7.50003C35.2561 7.50706 35.7068 7.443 36.0732 7.67816C36.6186 7.98519 36.8428 8.7305 36.56 9.28909C36.3553 9.73128 35.8764 10.0157 35.3912 9.99925C25.1311 10.0008 14.8701 10.0008 4.60918 9.99925C4.14434 10.0149 3.6834 9.75628 3.467 9.343C3.07012 8.66956 3.48887 7.71566 4.24746 7.54144Z" fill="white"/>
<path d="M4.24891 18.7915C4.54578 18.7259 4.85203 18.7548 5.1536 18.7501C15.2317 18.7509 25.3098 18.7493 35.388 18.7509C36.0708 18.711 36.7005 19.3118 36.6833 19.9985C36.702 20.6821 36.0778 21.2837 35.3966 21.2493C25.1333 21.2509 14.8692 21.2509 4.60594 21.2493C4.12157 21.2657 3.64422 20.9798 3.43953 20.5392C3.08875 19.8673 3.51297 18.961 4.24891 18.7915Z" fill="white"/>
<path d="M4.24661 30.0414C4.54505 29.9758 4.85286 30.0039 5.15598 30C14.9732 30.0008 24.7904 29.9992 34.6075 30C34.988 30.011 35.374 29.9649 35.7497 30.0414C36.3685 30.1891 36.7966 30.861 36.6591 31.4844C36.5607 32.0742 35.9896 32.525 35.3943 32.4992C25.131 32.5008 14.8669 32.5008 4.60286 32.4992C4.1427 32.5133 3.68723 32.2571 3.47005 31.8493C3.06848 31.1758 3.48567 30.2164 4.24661 30.0414Z" fill="white"/>
</svg>
