<svg width="160" height="45" viewBox="0 0 160 45" fill="none" xmlns="http://www.w3.org/2000/svg">
<path fill-rule="evenodd" clip-rule="evenodd" d="M21.3769 0.412394C20.4271 -0.137465 19.2571 -0.137465 18.3073 0.412394L1.53475 10.1233C0.585045 10.6732 0 11.6894 0 12.7891V32.2109C0 33.3106 0.585045 34.3268 1.53475 34.8767L18.3073 44.5876C19.2571 45.1375 20.4271 45.1375 21.3769 44.5876L38.1494 34.8767C39.0992 34.3268 39.6842 33.3106 39.6842 32.2109V12.7891C39.6842 11.6894 39.0992 10.6732 38.1494 10.1233L21.3769 0.412394ZM13.9097 7.63523C12.1557 6.61971 9.96317 7.88911 9.96317 9.92016L9.96317 35.0544C9.96317 37.0855 12.1557 38.3549 13.9097 37.3394L35.6155 24.7722C37.3695 23.7567 37.3695 21.2179 35.6155 20.2024L13.9097 7.63523Z" fill="#DF1F50"/>
<path d="M53.4722 30.4476V23.7496H55.3978C55.8947 23.7496 56.3502 23.8015 56.7643 23.9053C57.1784 24.0092 57.5304 24.1961 57.8202 24.4661C58.1308 24.7153 58.3689 25.058 58.5346 25.4942C58.7209 25.9096 58.8141 26.4392 58.8141 27.083C58.8141 28.3707 58.4828 29.2534 57.8202 29.7311C57.1577 30.2088 56.2881 30.4476 55.2114 30.4476H53.4722ZM53.4722 20.6342V14.8084H55.0872C56.2053 14.8084 57.0231 15.0265 57.5407 15.4626C58.0584 15.8988 58.3172 16.6465 58.3172 17.7057C58.3172 18.765 58.0273 19.523 57.4476 19.98C56.8885 20.4161 55.9879 20.6342 54.7456 20.6342H53.4722ZM49 11.5061V33.75H56.5469C57.8513 33.75 58.9383 33.5734 59.8079 33.2203C60.6982 32.8673 61.4125 32.4 61.9509 31.8184C62.5099 31.2161 62.9033 30.5203 63.131 29.7311C63.3588 28.9419 63.4727 28.1111 63.4727 27.2388C63.4727 25.7434 63.1103 24.5492 62.3857 23.6561C61.661 22.763 60.6775 22.2334 59.4352 22.0673V22.005C60.5533 21.6934 61.3918 21.1119 61.9509 20.2603C62.5099 19.388 62.7894 18.3496 62.7894 17.1449C62.7894 16.0857 62.6341 15.1926 62.3235 14.4657C62.013 13.7388 61.5782 13.1573 61.0191 12.7211C60.4601 12.285 59.7872 11.9734 59.0004 11.7865C58.2343 11.5996 57.3958 11.5061 56.4848 11.5061H49Z" fill="#DF1F50"/>
<path d="M71.4129 11.5061H66.2574V33.75H70.3569V18.173H70.419L75.8851 33.75H80.9785V11.5061H76.8789V26.7403H76.8168L71.4129 11.5061Z" fill="#DF1F50"/>
<path d="M88.5632 30.4476V23.7496H90.4888C90.9857 23.7496 91.4412 23.8015 91.8553 23.9053C92.2694 24.0092 92.6214 24.1961 92.9112 24.4661C93.2218 24.7153 93.4599 25.058 93.6256 25.4942C93.8119 25.9096 93.9051 26.4392 93.9051 27.083C93.9051 28.3707 93.5738 29.2534 92.9112 29.7311C92.2487 30.2088 91.3791 30.4476 90.3024 30.4476H88.5632ZM88.5632 20.6342V14.8084H90.1782C91.2963 14.8084 92.1141 15.0265 92.6317 15.4626C93.1494 15.8988 93.4082 16.6465 93.4082 17.7057C93.4082 18.765 93.1183 19.523 92.5386 19.98C91.9795 20.4161 91.0789 20.6342 89.8366 20.6342H88.5632ZM84.091 11.5061V33.75H91.6379C92.9423 33.75 94.0293 33.5734 94.8989 33.2203C95.7892 32.8673 96.5035 32.4 97.0419 31.8184C97.6009 31.2161 97.9943 30.5203 98.222 29.7311C98.4498 28.9419 98.5637 28.1111 98.5637 27.2388C98.5637 25.7434 98.2013 24.5492 97.4767 23.6561C96.752 22.763 95.7685 22.2334 94.5262 22.0673V22.005C95.6443 21.6934 96.4828 21.1119 97.0419 20.2603C97.6009 19.388 97.8804 18.3496 97.8804 17.1449C97.8804 16.0857 97.7251 15.1926 97.4145 14.4657C97.104 13.7388 96.6692 13.1573 96.1101 12.7211C95.5511 12.285 94.8782 11.9734 94.0914 11.7865C93.3253 11.5996 92.4868 11.5061 91.5758 11.5061H84.091Z" fill="#DF1F50"/>
<path d="M108.809 33.75H121.201V30.0738H113.282V11.5061H108.809V33.75Z" fill="#DF1F50"/>
<path d="M123.403 33.75H127.875V11.5061H123.403V33.75Z" fill="#DF1F50"/>
<path d="M134.516 11.5061H129.733L134.826 33.75H140.572L145.665 11.5061H141.038L137.745 27.9553H137.652L134.516 11.5061Z" fill="#DF1F50"/>
<path d="M159.689 11.5061H147.297V33.75H160V30.0738H151.77V24.0923H159.223V20.4161H151.77V15.1823H159.689V11.5061Z" fill="#DF1F50"/>
</svg>
