<svg width="40" height="40" viewBox="0 0 40 40" fill="none" xmlns="http://www.w3.org/2000/svg">
<path d="M15.0755 4.36794C17.3872 3.33591 20.0239 3.08123 22.5005 3.58904C24.8911 4.07185 27.1223 5.28591 28.8411 7.01404C30.7497 8.91873 32.0216 11.4539 32.3802 14.1289C32.5434 15.2445 32.4903 16.375 32.4997 17.4984C32.5052 19.0648 32.488 20.632 32.5083 22.1976C33.0786 23.4078 33.6966 24.5976 34.2856 25.7992C34.5427 26.3492 34.8911 26.8765 34.9606 27.4937C35.1419 28.7929 34.3442 30.1453 33.127 30.6289C32.7809 30.7718 32.4044 30.8351 32.0309 30.8336C29.688 30.8336 27.3458 30.8328 25.0028 30.8336C24.9973 31.9828 24.5872 33.1258 23.8481 34.007C22.9372 35.1234 21.5247 35.8164 20.0817 35.8312C18.8419 35.8601 17.6075 35.389 16.6872 34.5617C15.627 33.6328 14.995 32.2437 14.9958 30.8336C12.5997 30.8304 10.2028 30.839 7.80672 30.8297C6.3161 30.7984 5.04969 29.4422 5.01688 27.9711C4.97469 27.3664 5.19657 26.7867 5.48251 26.2656C6.09735 25.0297 6.70985 23.7929 7.32704 22.5578C7.40438 22.3922 7.52079 22.2304 7.50126 22.0383C7.49891 20.057 7.49813 18.0758 7.50126 16.0945C7.50829 13.6304 8.23797 11.1742 9.57547 9.10466C10.9005 7.03982 12.8263 5.35779 15.0755 4.36794ZM18.7153 5.91716C16.1513 6.23826 13.7747 7.66248 12.2052 9.70388C10.7934 11.5148 10.0067 13.7992 10.0013 16.0953C9.99813 18.2054 10.0005 20.3156 10.0005 22.4258C10.0067 22.6679 9.95047 22.907 9.83797 23.1211C9.08485 24.6344 8.33329 26.1492 7.58016 27.6625C7.50438 27.8125 7.43954 28.0039 7.54266 28.1586C7.64969 28.3297 7.87079 28.3359 8.05047 28.3344C16.0466 28.3312 24.0427 28.3351 32.0388 28.332C32.3505 28.3851 32.6348 28.0547 32.463 27.7625C31.7739 26.35 31.0653 24.9461 30.3684 23.5367C30.2122 23.2062 29.9919 22.8828 30.0013 22.5015C29.9966 20.2609 30.0028 18.0187 29.9981 15.7781C29.9903 14.3859 29.695 12.9953 29.1231 11.725C28.2216 9.7031 26.6239 8.00154 24.6606 6.97732C22.8513 6.02107 20.7427 5.65388 18.7153 5.91716ZM17.4966 30.8344C17.5005 31.6062 17.8645 32.3726 18.4911 32.8328C19.3216 33.4703 20.5559 33.4976 21.4153 32.9C22.0942 32.4476 22.4989 31.6453 22.5028 30.8336C20.8341 30.8328 19.1653 30.8328 17.4966 30.8344Z" fill="white"/>
</svg>
