<svg width="30" height="33" viewBox="0 0 30 33" fill="none" xmlns="http://www.w3.org/2000/svg">
<path d="M10.0755 1.36794C12.3872 0.335913 15.0239 0.0812256 17.5005 0.589038C19.8911 1.07185 22.1223 2.28591 23.8411 4.01404C25.7497 5.91873 27.0216 8.45388 27.3802 11.1289C27.5434 12.2445 27.4903 13.375 27.4997 14.4984C27.5052 16.0648 27.488 17.632 27.5083 19.1976C28.0786 20.4078 28.6966 21.5976 29.2856 22.7992C29.5427 23.3492 29.8911 23.8765 29.9606 24.4937C30.1419 25.7929 29.3442 27.1453 28.127 27.6289C27.7809 27.7718 27.4044 27.8351 27.0309 27.8336C24.688 27.8336 22.3458 27.8328 20.0028 27.8336C19.9973 28.9828 19.5872 30.1258 18.8481 31.007C17.9372 32.1234 16.5247 32.8164 15.0817 32.8312C13.8419 32.8601 12.6075 32.389 11.6872 31.5617C10.627 30.6328 9.995 29.2437 9.99579 27.8336C7.59969 27.8304 5.20282 27.839 2.80672 27.8297C1.3161 27.7984 0.0496931 26.4422 0.0168806 24.9711C-0.0253069 24.3664 0.196568 23.7867 0.482506 23.2656C1.09735 22.0297 1.70985 20.7929 2.32704 19.5578C2.40438 19.3922 2.52079 19.2304 2.50126 19.0383C2.49891 17.057 2.49813 15.0758 2.50126 13.0945C2.50829 10.6304 3.23797 8.17419 4.57547 6.10466C5.90047 4.03982 7.82625 2.35779 10.0755 1.36794ZM13.7153 2.91716C11.1513 3.23826 8.77469 4.66248 7.20516 6.70388C5.79344 8.51482 5.00672 10.7992 5.00126 13.0953C4.99813 15.2054 5.00047 17.3156 5.00047 19.4258C5.00672 19.6679 4.95047 19.907 4.83797 20.1211C4.08485 21.6344 3.33329 23.1492 2.58016 24.6625C2.50438 24.8125 2.43954 25.0039 2.54266 25.1586C2.64969 25.3297 2.87079 25.3359 3.05047 25.3344C11.0466 25.3312 19.0427 25.3351 27.0388 25.332C27.3505 25.3851 27.6348 25.0547 27.463 24.7625C26.7739 23.35 26.0653 21.9461 25.3684 20.5367C25.2122 20.2062 24.9919 19.8828 25.0013 19.5015C24.9966 17.2609 25.0028 15.0187 24.9981 12.7781C24.9903 11.3859 24.695 9.99529 24.1231 8.72498C23.2216 6.7031 21.6239 5.00154 19.6606 3.97732C17.8513 3.02107 15.7427 2.65388 13.7153 2.91716ZM12.4966 27.8344C12.5005 28.6062 12.8645 29.3726 13.4911 29.8328C14.3216 30.4703 15.5559 30.4976 16.4153 29.9C17.0942 29.4476 17.4989 28.6453 17.5028 27.8336C15.8341 27.8328 14.1653 27.8328 12.4966 27.8344Z" fill="white"/>
</svg>
