<svg width="30" height="31" viewBox="0 0 30 31" fill="none" xmlns="http://www.w3.org/2000/svg">
<path d="M3.86892 0.0562521C4.11267 0.0164083 4.36032 0.00234573 4.6072 1.98307e-06C11.5353 1.98307e-06 18.4634 1.98307e-06 25.3916 1.98307e-06C26.5259 -0.00859177 27.6541 0.429689 28.4892 1.19688C29.4431 2.05391 30.0095 3.325 30.0002 4.6086C30.0002 11.5352 30.0002 18.4625 30.0002 25.3898C30.0072 26.5055 29.583 27.6156 28.84 28.4477C27.9822 29.4258 26.6947 30.0094 25.3931 30C18.7259 30 12.0595 30 5.39235 30C4.77907 29.9961 4.15564 30.0344 3.55564 29.8789C2.34235 29.5969 1.26189 28.7992 0.63376 27.7242C0.219698 27.0211 -0.00530243 26.2055 0.000166317 25.3891C0.000166317 18.4633 0.000166317 11.5383 0.000166317 4.6125C-0.00998993 3.4586 0.445479 2.31094 1.23532 1.47031C1.92438 0.724221 2.86657 0.221096 3.86892 0.0562521ZM4.31345 2.51797C3.32048 2.61797 2.50095 3.52735 2.50329 4.525C2.49704 11.4813 2.50095 18.4375 2.50095 25.3938C2.48454 26.1367 2.89548 26.8695 3.54782 27.2289C3.89157 27.4273 4.29314 27.5086 4.68845 27.5008C11.6174 27.4969 18.5463 27.5047 25.4752 27.4969C26.5494 27.5016 27.5009 26.55 27.497 25.4766C27.5041 18.5203 27.4986 11.5641 27.4994 4.60781C27.5158 3.84688 27.0845 3.09141 26.4033 2.74375C26.0236 2.53281 25.5822 2.48438 25.1549 2.49922C18.333 2.50078 11.5103 2.5 4.68845 2.49922C4.56267 2.50078 4.43767 2.50391 4.31345 2.51797Z" fill="white"/>
<path d="M13.7511 7.88364C13.7425 7.22583 14.337 6.63051 14.9972 6.65004C15.6605 6.62973 16.2589 7.22114 16.2472 7.88442C16.2527 9.83989 16.248 11.7946 16.2495 13.75C18.2042 13.7516 20.1589 13.7469 22.1136 13.7524C22.7761 13.7407 23.3659 14.3368 23.3488 14.9985C23.3667 15.6625 22.7753 16.2594 22.1113 16.2477C20.1573 16.2532 18.2034 16.2485 16.2495 16.25C16.2472 18.204 16.2527 20.1579 16.2472 22.1118C16.2527 22.6797 15.8222 23.2094 15.2659 23.3204C14.5261 23.5094 13.7331 22.8774 13.7519 22.1149C13.7464 20.1602 13.7511 18.2047 13.7495 16.25C11.7941 16.2477 9.83938 16.2532 7.88469 16.2477C7.31828 16.2524 6.79094 15.8211 6.67844 15.2672C6.4886 14.5258 7.12375 13.7313 7.88782 13.7516C9.84172 13.7469 11.7956 13.7516 13.7495 13.75C13.7511 11.7946 13.7472 9.83911 13.7511 7.88364Z" fill="white"/>
</svg>
