<svg width="40" height="40" viewBox="0 0 40 40" fill="none" xmlns="http://www.w3.org/2000/svg">
<path d="M8.86892 5.05625C9.11267 5.01641 9.36032 5.00235 9.6072 5C16.5353 5 23.4634 5 30.3916 5C31.5259 4.99141 32.6541 5.42969 33.4892 6.19688C34.4431 7.05391 35.0095 8.325 35.0002 9.6086C35.0002 16.5352 35.0002 23.4625 35.0002 30.3898C35.0072 31.5055 34.583 32.6156 33.84 33.4477C32.9822 34.4258 31.6947 35.0094 30.3931 35C23.7259 35 17.0595 35 10.3924 35C9.77907 34.9961 9.15564 35.0344 8.55564 34.8789C7.34235 34.5969 6.26189 33.7992 5.63376 32.7242C5.2197 32.0211 4.9947 31.2055 5.00017 30.3891C5.00017 23.4633 5.00017 16.5383 5.00017 9.6125C4.99001 8.4586 5.44548 7.31094 6.23532 6.47031C6.92438 5.72422 7.86657 5.2211 8.86892 5.05625ZM9.31345 7.51797C8.32048 7.61797 7.50095 8.52735 7.50329 9.525C7.49704 16.4813 7.50095 23.4375 7.50095 30.3938C7.48454 31.1367 7.89548 31.8695 8.54782 32.2289C8.89157 32.4273 9.29314 32.5086 9.68845 32.5008C16.6174 32.4969 23.5463 32.5047 30.4752 32.4969C31.5494 32.5016 32.5009 31.55 32.497 30.4766C32.5041 23.5203 32.4986 16.5641 32.4994 9.60781C32.5158 8.84688 32.0845 8.09141 31.4033 7.74375C31.0236 7.53281 30.5822 7.48438 30.1549 7.49922C23.333 7.50078 16.5103 7.5 9.68845 7.49922C9.56267 7.50078 9.43767 7.50391 9.31345 7.51797Z" fill="white"/>
<path d="M18.7511 12.8836C18.7425 12.2258 19.337 11.6305 19.9972 11.65C20.6605 11.6297 21.2589 12.2211 21.2472 12.8844C21.2527 14.8399 21.248 16.7946 21.2495 18.75C23.2042 18.7516 25.1589 18.7469 27.1136 18.7524C27.7761 18.7407 28.3659 19.3368 28.3488 19.9985C28.3667 20.6625 27.7753 21.2594 27.1113 21.2477C25.1573 21.2532 23.2034 21.2485 21.2495 21.25C21.2472 23.204 21.2527 25.1579 21.2472 27.1118C21.2527 27.6797 20.8222 28.2094 20.2659 28.3204C19.5261 28.5094 18.7331 27.8774 18.7519 27.1149C18.7464 25.1602 18.7511 23.2047 18.7495 21.25C16.7941 21.2477 14.8394 21.2532 12.8847 21.2477C12.3183 21.2524 11.7909 20.8211 11.6784 20.2672C11.4886 19.5258 12.1238 18.7313 12.8878 18.7516C14.8417 18.7469 16.7956 18.7516 18.7495 18.75C18.7511 16.7946 18.7472 14.8391 18.7511 12.8836Z" fill="white"/>
</svg>
