<svg width="40" height="40" viewBox="0 0 40 40" fill="none" xmlns="http://www.w3.org/2000/svg">
<path d="M13.6387 5.50388C15.8778 4.83357 18.3129 4.83513 20.5512 5.50857C23.2012 6.29763 25.5481 8.03826 27.0934 10.3289C28.4582 12.3336 29.1895 14.7586 29.1645 17.1828C29.1543 19.8992 28.1715 22.5867 26.4606 24.6914C29.184 27.4172 31.9113 30.139 34.634 32.8656C35.116 33.3125 35.1442 34.139 34.6863 34.6133C34.2418 35.1211 33.3824 35.15 32.9074 34.6703C30.1645 31.9367 27.4317 29.1929 24.6895 26.4586C22.7723 28.0234 20.3645 28.9797 17.8942 29.1375C15.5012 29.3023 13.0637 28.7312 10.9973 27.5125C8.9801 26.3359 7.31838 24.5609 6.27463 22.4726C5.31057 20.5578 4.8801 18.382 5.03166 16.2445C5.19963 13.6773 6.23166 11.1797 7.91135 9.23201C9.41135 7.47576 11.4238 6.16248 13.6387 5.50388ZM15.9824 7.56326C13.2942 7.85388 10.7723 9.35701 9.23166 11.5781C7.96057 13.3765 7.35588 15.625 7.5301 17.8187C7.68791 20.0554 8.67307 22.2203 10.252 23.8125C11.8309 25.4242 13.9957 26.4437 16.2449 26.6281C18.3004 26.8117 20.4121 26.3133 22.159 25.2125C24.0387 24.0406 25.4934 22.2008 26.1824 20.0937C26.8856 17.9758 26.8176 15.6125 25.9918 13.539C25.1504 11.3984 23.5059 9.58826 21.4551 8.54842C19.7817 7.68513 17.8504 7.35076 15.9824 7.56326Z" fill="white"/>
</svg>
