<svg width="40" height="40" viewBox="0 0 40 40" fill="none" xmlns="http://www.w3.org/2000/svg">
<path d="M18.3242 3.42341C20.1297 3.22966 21.9664 3.35701 23.7344 3.76951C24.2508 3.86404 24.6812 4.30544 24.7429 4.82966C24.8523 5.69451 24.9242 6.56404 25.039 7.4281C25.1945 8.43513 26.0312 9.28435 27.0328 9.46247C27.5297 9.56013 28.0531 9.49372 28.5164 9.29216C29.257 8.97341 29.9922 8.64138 30.732 8.32107C31.0875 8.16326 31.5156 8.18357 31.8531 8.37966C32.0804 8.50701 32.2429 8.71716 32.4172 8.90544C34.0242 10.6992 35.2429 12.8414 35.9429 15.1468C36.0539 15.4968 36.007 15.8929 35.807 16.2023C35.6156 16.5039 35.2906 16.6765 35.0156 16.8898C34.4656 17.3015 33.8984 17.6906 33.3601 18.1179C32.5039 18.8343 32.2531 20.1508 32.7758 21.1359C32.9828 21.557 33.3273 21.8898 33.7094 22.1531C34.3086 22.5937 34.9117 23.0297 35.5094 23.4734C35.9109 23.7734 36.0984 24.3242 35.9554 24.8062C35.2828 27.0593 34.107 29.1562 32.5633 30.9281C32.3781 31.1304 32.2078 31.35 31.9953 31.525C31.6445 31.7992 31.1437 31.8601 30.7367 31.6804C29.9383 31.3398 29.1523 30.9703 28.3492 30.6422C27.2883 30.2344 25.9937 30.6789 25.3969 31.6429C25.1859 31.9687 25.0593 32.3453 25.0148 32.7312C24.925 33.5164 24.8437 34.3031 24.7547 35.089C24.7242 35.4594 24.5289 35.8148 24.2203 36.025C23.9789 36.2 23.6758 36.2437 23.3922 36.307C21.2539 36.7609 19.025 36.7859 16.8804 36.357C16.4906 36.2687 16.0594 36.2445 15.7328 35.989C15.4758 35.7906 15.2984 35.4914 15.2586 35.1687C15.15 34.3047 15.0773 33.4359 14.9625 32.5734C14.8109 31.5945 14.0195 30.7609 13.0515 30.5539C12.5304 30.4343 11.9742 30.4914 11.4851 30.7062C10.8164 31.0008 10.1469 31.2945 9.4781 31.5898C8.97732 31.8773 8.28982 31.8492 7.88123 31.4133C6.12498 29.5601 4.79919 27.2976 4.05857 24.8531C3.89451 24.3633 4.07263 23.7859 4.48826 23.4773C5.14529 22.9875 5.81326 22.5109 6.47185 22.0218C6.99685 21.6343 7.36716 21.0414 7.46716 20.3953C7.6281 19.4656 7.19919 18.4812 6.4281 17.9445C5.78357 17.4695 5.13357 17.0023 4.49295 16.5234C4.19138 16.2984 4.0031 15.9304 3.99841 15.5539C3.99138 15.2843 4.09451 15.0304 4.17419 14.7773C4.9281 12.4906 6.19607 10.3773 7.84451 8.62341C8.1781 8.24919 8.74529 8.10935 9.21169 8.29763C10.0289 8.63826 10.8281 9.02029 11.6476 9.35466C12.6929 9.75857 13.9703 9.33747 14.5765 8.39763C15.0898 7.65622 15.0086 6.71638 15.1414 5.86482C15.2219 5.39294 15.1789 4.88826 15.3758 4.44294C15.5445 4.09763 15.8797 3.84763 16.2547 3.77107C16.9375 3.61716 17.6281 3.49763 18.3242 3.42341ZM17.6273 6.11794C17.5117 6.9781 17.5117 7.86794 17.207 8.69216C16.8273 9.75779 16.0758 10.6867 15.1078 11.2734C14.0812 11.9062 12.8195 12.1437 11.6328 11.9304C10.7578 11.7867 9.98044 11.3375 9.17029 11.0047C8.1492 12.2195 7.35076 13.6148 6.7867 15.0968C7.23591 15.4562 7.71795 15.7718 8.16795 16.1312C9.18982 16.9625 9.85623 18.2125 9.97654 19.525C10.1039 20.8023 9.70857 22.1203 8.90466 23.1203C8.33435 23.8515 7.52654 24.3328 6.79295 24.8797C7.3281 26.3789 8.15388 27.7695 9.16794 28.9937C9.97966 28.6633 10.7554 28.2109 11.6304 28.0679C12.7789 27.8609 13.9976 28.0758 15.0047 28.6648C16.0383 29.2554 16.839 30.2351 17.2258 31.3601C17.5148 32.1703 17.5109 33.0422 17.6304 33.8851C18.182 33.9726 18.7312 34.0789 19.2883 34.1297C20.3226 34.2406 21.3601 34.0711 22.375 33.8804C22.4883 33.0187 22.489 32.1289 22.7945 31.3047C23.2312 30.0719 24.1758 29.0297 25.3609 28.4742C26.6047 27.8734 28.1 27.8336 29.3773 28.357C29.8664 28.5625 30.35 28.7828 30.8375 28.9914C31.8461 27.764 32.6758 26.3773 33.2078 24.8781C32.7328 24.5375 32.2554 24.1992 31.7969 23.8359C30.7734 22.989 30.1172 21.7187 30.0172 20.3937C29.9109 19.1203 30.3218 17.814 31.1359 16.8297C31.7023 16.1234 32.4929 15.6578 33.2078 15.1218C32.6773 13.6218 31.8461 12.2367 30.839 11.0078C30.0484 11.3273 29.2929 11.7609 28.4461 11.9179C27.3726 12.1265 26.2312 11.9695 25.2562 11.4742C24.1195 10.9086 23.2187 9.88982 22.7937 8.69294C22.4883 7.86951 22.4898 6.97966 22.3742 6.11872C21.7172 5.9906 21.0539 5.88826 20.3851 5.84451C19.457 5.78747 18.5375 5.96247 17.6273 6.11794Z" fill="white"/>
<path d="M18.9498 13.4171C20.4881 13.1679 22.1107 13.482 23.4404 14.296C24.6779 15.0453 25.6639 16.2039 26.1967 17.5499C26.7037 18.8156 26.8021 20.2398 26.4787 21.564C26.1154 23.0734 25.2014 24.439 23.9521 25.3578C22.6748 26.3148 21.042 26.7789 19.4521 26.6421C16.974 26.4632 14.6998 24.7585 13.8029 22.4468C13.1334 20.7812 13.1857 18.8421 13.9475 17.2171C14.8529 15.2289 16.7881 13.7499 18.9498 13.4171ZM19.1779 15.9156C18.0881 16.1265 17.0982 16.7968 16.5006 17.732C15.9631 18.5578 15.7428 19.5773 15.8732 20.5531C16.0131 21.6742 16.6381 22.7257 17.5592 23.3804C18.4131 24.0015 19.5092 24.2679 20.5537 24.1265C21.6756 23.9874 22.7271 23.3609 23.3834 22.439C24.0029 21.5835 24.2693 20.4867 24.1271 19.4414C23.9756 18.2296 23.2553 17.1046 22.2139 16.4656C21.3217 15.9023 20.2107 15.7117 19.1779 15.9156Z" fill="white"/>
</svg>
