<svg width="40" height="40" viewBox="0 0 40 40" fill="none" xmlns="http://www.w3.org/2000/svg">
<path d="M18.8658 4.89146C19.0994 4.37739 19.7025 4.06724 20.2557 4.19458C20.6385 4.27036 20.9666 4.53833 21.133 4.88911C22.5604 7.74067 23.9846 10.5938 25.4127 13.4454C28.751 13.9547 32.0885 14.4727 35.426 14.9836C35.6893 15.0204 35.9588 15.0868 36.1713 15.2555C36.6127 15.579 36.7869 16.2102 36.5744 16.7149C36.4658 17.0032 36.2252 17.2086 36.0143 17.4219C33.7588 19.6782 31.5025 21.9321 29.2479 24.1891C29.7713 27.5868 30.2955 30.9852 30.8158 34.3836C30.94 35.0477 30.4322 35.7399 29.7611 35.818C29.3986 35.8821 29.0502 35.7329 28.744 35.5555C25.8307 34.0329 22.9182 32.511 20.0018 30.9946C16.9979 32.5594 13.9971 34.1305 10.9916 35.6915C10.4752 35.9688 9.77755 35.818 9.42911 35.3454C9.19786 35.0555 9.12364 34.6641 9.19473 34.304C9.71505 30.9321 10.2322 27.5594 10.7525 24.1868C8.56348 21.9946 6.3713 19.8055 4.18145 17.6149C3.86192 17.2766 3.43458 16.9743 3.35723 16.4821C3.21348 15.8235 3.70255 15.1165 4.36973 15.0211C7.77598 14.4938 11.1838 13.9774 14.5885 13.4446C16.015 10.5938 17.4393 7.74224 18.8658 4.89146ZM16.5111 15.1813C16.2682 15.6743 15.7049 15.8461 15.1955 15.8844C12.5346 16.293 9.87442 16.7016 7.21426 17.1133C9.1252 19.0211 11.0346 20.9321 12.944 22.8422C13.2385 23.1243 13.3838 23.5485 13.3166 23.9516C12.8885 26.7454 12.4565 29.5375 12.0291 32.3313C14.5119 31.043 16.9885 29.743 19.4713 28.4532C19.8947 28.2368 20.3986 28.3399 20.7869 28.5813C23.1815 29.8329 25.5783 31.079 27.9713 32.3321C27.5432 29.5383 27.1119 26.7454 26.6838 23.9516C26.615 23.5485 26.7611 23.1227 27.0572 22.8422C28.9682 20.9313 30.8799 19.0219 32.7893 17.1094C30.1432 16.7032 27.4979 16.2961 24.8525 15.8875C24.5479 15.8368 24.2229 15.8258 23.9525 15.661C23.7213 15.5297 23.5479 15.3172 23.4346 15.0805C22.29 12.7915 21.1471 10.5016 20.0002 8.21411C18.8346 10.5352 17.6807 12.8625 16.5111 15.1813Z" fill="white"/>
</svg>
