<svg width="40" height="45" viewBox="0 0 40 45" fill="none" xmlns="http://www.w3.org/2000/svg">
<path fill-rule="evenodd" clip-rule="evenodd" d="M21.3769 0.412394C20.4271 -0.137465 19.2571 -0.137465 18.3073 0.412394L1.53475 10.1233C0.585045 10.6732 0 11.6894 0 12.7891V32.2109C0 33.3106 0.585045 34.3268 1.53475 34.8767L18.3073 44.5876C19.2571 45.1375 20.4271 45.1375 21.3769 44.5876L38.1494 34.8767C39.0992 34.3268 39.6842 33.3106 39.6842 32.2109V12.7891C39.6842 11.6894 39.0992 10.6732 38.1494 10.1233L21.3769 0.412394ZM13.9097 7.63523C12.1557 6.61971 9.96317 7.88911 9.96317 9.92016L9.96317 35.0544C9.96317 37.0855 12.1557 38.3549 13.9097 37.3394L35.6155 24.7722C37.3695 23.7567 37.3695 21.2179 35.6155 20.2024L13.9097 7.63523Z" fill="#DF1F50"/>
</svg>
