<svg width="40" height="40" viewBox="0 0 40 40" fill="none" xmlns="http://www.w3.org/2000/svg">
<g clip-path="url(#clip0_333_483)">
<path d="M13.4344 8.58125C16.4492 7.56172 19.7055 7.25391 22.857 7.70547C27.9219 8.40859 32.6781 11.0602 35.9695 14.9695C37.8766 17.2203 39.2875 19.9 40 22.7664V23.0344C39.9352 23.625 39.4289 24.1398 38.8266 24.1641C38.2313 24.2094 37.6531 23.7719 37.5273 23.1891C36.7203 20.093 34.9508 17.2875 32.6273 15.1031C30.5492 13.1422 28.0211 11.6586 25.2906 10.8117C22.4937 9.9375 19.4789 9.76328 16.6031 10.332C12.7352 11.0805 9.13906 13.1156 6.46875 16.007C4.59219 18.0359 3.17109 20.5063 2.47266 23.1867C2.3375 23.8258 1.65469 24.2836 1.01328 24.143C0.482031 24.0539 0.0773437 23.5836 0 23.0602V22.7914C0.703125 19.8766 2.15547 17.1617 4.09609 14.8836C6.5625 11.9898 9.82813 9.78594 13.4344 8.58125Z" fill="white"/>
<path d="M19.4812 14.1844C21.139 14.0742 22.8273 14.493 24.2358 15.3758C26.0796 16.5164 27.4351 18.4235 27.878 20.5485C28.2905 22.4578 27.971 24.5141 26.9929 26.2055C25.921 28.0891 24.064 29.5117 21.9577 30.0321C20.3327 30.4406 18.5796 30.3289 17.0257 29.6992C15.1101 28.9391 13.514 27.4149 12.6663 25.5367C11.8273 23.7086 11.7202 21.561 12.3679 19.6571C12.9288 17.9836 14.0608 16.5117 15.5273 15.5328C16.6952 14.7438 18.0749 14.2727 19.4812 14.1844ZM19.6382 16.6781C17.9991 16.7703 16.4288 17.6406 15.4804 18.9813C14.721 20.0352 14.3601 21.3633 14.4648 22.6578C14.5616 23.9922 15.1632 25.2821 16.1273 26.2094C16.9999 27.0617 18.1632 27.6078 19.3757 27.7391C20.5382 27.8711 21.7421 27.6289 22.7593 27.0492C23.7171 26.5039 24.5062 25.6664 24.989 24.6742C25.6148 23.4063 25.7249 21.8961 25.3007 20.5477C24.9101 19.2813 24.0429 18.1711 22.9116 17.4821C21.939 16.8821 20.7773 16.6047 19.6382 16.6781Z" fill="white"/>
</g>
<defs>
<clipPath id="clip0_333_483">
<rect width="40" height="40" fill="white"/>
</clipPath>
</defs>
</svg>
